<svg id="Layer_1" data-name="Layer 1" xmlns="http://www.w3.org/2000/svg" viewBox="0 0 1041.92 1150.48"><defs><style>.cls-1{fill:#333;fill-rule:evenodd;}</style></defs><path class="cls-1" d="M604.6,125.24c-172.84-4-232.52,99-236.06,224.09-.07,2-.1,4-.14,6.05h0c0,2,0,4.07,0,6.09,0,130.48,53.19,310.14,225.89,310.14,3.48,0,6.93-.11,10.34-.25,3.41.14,6.85.25,10.34.25,107.44,0,168.62-69.57,199.53-153.54a311.64,311.64,0,0,1-111.8,38.23,30.65,30.65,0,0,1-25.82,21.31h-.11l-27.3,2.87A30.5,30.5,0,0,1,643,519.82h0L670.36,517a30.55,30.55,0,0,1,28.2,12.91,285.51,285.51,0,0,0,128.09-51.45,485.08,485.08,0,0,0,14.18-116.94c0-2,0-4.07,0-6.09h0c0-2-.07-4-.14-6.05-3.54-125.07-63.21-228.1-236-224.09" transform="translate(-83.63 -29.36)"/><path class="cls-1" d="M604.6,29.36c166.91,0,302.23,135.31,302.23,302.23v19.14H850.08V331.59C850.08,196,740.19,86.11,604.6,86.11S359.11,196,359.11,331.59v19.14H302.36V331.59c0-166.92,135.33-302.23,302.24-302.23" transform="translate(-83.63 -29.36)"/><path class="cls-1" d="M332.74,322.79a35.73,35.73,0,0,1,35.63,35.62v64.13a35.62,35.62,0,0,1-68.49,13.71,24.29,24.29,0,0,1-21-24V368.7a24.28,24.28,0,0,1,21-24,35.74,35.74,0,0,1,32.86-21.91" transform="translate(-83.63 -29.36)"/><path class="cls-1" d="M876.46,322.79h0a35.73,35.73,0,0,0-35.62,35.62v64.13a35.73,35.73,0,0,0,35.62,35.62h0a35.74,35.74,0,0,0,32.85-21.91,24.31,24.31,0,0,0,21-24V368.7a24.3,24.3,0,0,0-21-24,35.72,35.72,0,0,0-32.85-21.91" transform="translate(-83.63 -29.36)"/><path class="cls-1" d="M447.56,685l-.18.44L526,729.8l78.61,44.35,78.61-44.35,78.6-44.34-.18-.44c316.93,0,301.82,201.28,363.93,403.6H83.63C145.74,886.3,130.63,685,447.56,685" transform="translate(-83.63 -29.36)"/><path class="cls-1" d="M604.6,997.41c287.71,0,521,40.83,521,91.21s-233.25,91.22-521,91.22-521-40.84-521-91.22,233.25-91.21,521-91.21" transform="translate(-83.63 -29.36)"/></svg>