<?xml version="1.0" encoding="utf-8"?>
<!-- Generator: Adobe Illustrator 24.2.3, SVG Export Plug-In . SVG Version: 6.00 Build 0)  -->
<svg version="1.1" id="Capa_1" xmlns="http://www.w3.org/2000/svg" xmlns:xlink="http://www.w3.org/1999/xlink" x="0px" y="0px"
	 viewBox="0 0 800 855.1" style="enable-background:new 0 0 800 855.1;" xml:space="preserve">
<g>
	<path d="M770.5,57.1l-84.7,38.5c-5.4,2.5-10.4,5.9-14.7,10.2l-137.9,138l-475.1-57c-8.6-1-17.3,1.9-23.4,8.1L8.3,221.4
		c-14,14-9.7,37.7,8.4,45.8l340.5,152.6l-97.7,97.7H88.7c-7.5,0-14.7,3-20,8.3l-14.3,14.3c-14.2,14.2-9.5,38.1,8.8,46l144,61.7
		l61.7,144c7.8,18.3,31.9,23,46,8.8l14.3-14.3c5.3-5.3,8.3-12.5,8.3-20V595.6l97.7-97.7L588,838.4c8.1,18.1,31.8,22.4,45.8,8.4
		l26.4-26.4c6.2-6.2,9.1-14.8,8.1-23.4l-57-475.1l138-138c4.3-4.3,7.7-9.2,10.2-14.7L798,84.6C806.1,67.2,788.1,49.1,770.5,57.1z"/>
</g>
</svg>
