<svg id="user" xmlns="http://www.w3.org/2000/svg" viewBox="0 0 416 416"><path d="M217.11,9.11c-114.9,0-208,93.1-208,208s93.1,208,208,208,208-93.1,208-208S332,9.11,217.11,9.11Zm0,398.7A190.4,190.4,0,0,1,71,339.51c17.8-7.7,62.2-23.7,90.3-31.9,2.2-.7,2.6-.8,2.6-10.7,0-10.6-1.2-18.1-3.8-23.6a119.88,119.88,0,0,1-9.2-31.6c-4.2-4.9-9.9-14.5-13.6-32.9-3.2-16.2-1.7-22.1.4-27.6a12.66,12.66,0,0,0,.6-1.8c.8-3.7-.3-23.5-3.1-38.8-1.9-10.5.5-32.8,15-51.3,9.1-11.7,26.6-26,58-28h17.5c31.9,2,49.4,16.3,58.5,28,14.5,18.5,16.9,40.8,14.9,51.3-2.8,15.3-3.9,35-3.1,38.8a8.51,8.51,0,0,0,.6,1.7c2.1,5.5,3.7,11.4.4,27.6-3.7,18.4-9.4,28-13.6,32.9a121,121,0,0,1-9.2,31.6c-3.3,6.9-6.6,15.1-6.6,23.3,0,9.9.4,10,2.7,10.7,26.7,7.9,72.7,23.8,93,32.1a190.3,190.3,0,0,1-146.2,68.5Z" transform="translate(-9.11 -9.11)"/></svg>